<svg width="626" height="333" viewBox="0 0 626 333" fill="none" xmlns="http://www.w3.org/2000/svg">
<g clip-path="url(#clip0)">
<path opacity="0.1" d="M578.003 263.319C577.306 264.821 576.61 266.303 575.917 267.765C574.835 270.037 573.767 272.264 572.713 274.447C572.244 275.415 571.775 276.364 571.318 277.314C566.148 287.872 561.321 297.21 557.221 304.889C553.501 311.847 547.977 317.678 541.228 321.769C534.479 325.86 526.754 328.062 518.861 328.144L427.695 329.135H426.733L418.918 329.219L412.233 329.291L391.734 329.514H390.904L380.468 329.628H380.149L315.825 330.325L258.408 330.926L251.729 330.998L210.249 331.449H210.201L183.299 331.737H183.011L97.9467 332.657L72.4996 332.933C67.0692 332.994 61.6616 332.22 56.4667 330.638C47.4265 327.908 39.302 322.766 32.9673 315.765C22.0383 303.729 14.0729 289.686 8.72256 274.447C7.94907 272.248 7.22768 270.021 6.55839 267.765C-11.9634 205.182 10.6162 124.439 51.2546 70.4063C52.9579 68.1469 54.6893 65.9436 56.4487 63.7964L56.4907 63.7484C68.9889 48.4134 83.0019 35.6023 97.9287 26.4927C124.38 10.3225 153.686 5.76767 182.512 19.342C206.901 30.8312 229.673 36.2332 251.748 37.6994C253.978 37.8436 256.208 37.9518 258.426 38.0179C309.062 39.6103 356.518 21.373 412.245 9.6014C414.464 9.1327 416.688 8.67001 418.93 8.23135C458.685 0.323527 502.786 -3.84671 555.231 4.9204C560.68 5.81013 566.056 7.09545 571.318 8.76615C573.631 9.51127 575.859 10.3125 578.003 11.1697C603.035 21.349 616.688 40.1571 622.489 63.7243C623.038 65.9116 623.513 68.1369 623.914 70.4003C634.2 127.089 604.075 207.501 578.003 263.319Z" fill="#FFEE51"/>
<g opacity="0.1">
<path opacity="0.1" d="M97.929 26.4935V332.723L72.4819 333C67.0515 333.061 61.6439 332.287 56.449 330.704V63.7492H56.4911C68.9892 48.3963 83.0022 35.5851 97.929 26.4935Z" fill="#6C63FF"/>
<path opacity="0.1" d="M623.944 70.4072H51.2549C52.9582 68.1478 54.6895 65.9445 56.4489 63.7973V63.7493H622.519C623.068 65.9245 623.543 68.1438 623.944 70.4072Z" fill="#6C63FF"/>
<path opacity="0.1" d="M578.003 11.1767V267.76H575.917C574.835 270.032 573.767 272.259 572.713 274.442C572.244 275.41 571.775 276.359 571.318 277.309V8.74902C573.631 9.49414 575.859 10.3033 578.003 11.1767Z" fill="#6C63FF"/>
<path opacity="0.1" d="M418.93 8.21423V329.244L412.246 329.316V9.58428C414.464 9.11558 416.688 8.65289 418.93 8.21423Z" fill="#6C63FF"/>
<path opacity="0.1" d="M258.427 38.0007V330.987L251.748 331.059V37.6823C253.978 37.8265 256.208 37.9106 258.427 38.0007Z" fill="#6C63FF"/>
<path opacity="0.1" d="M575.917 267.766C574.835 270.038 573.767 272.265 572.713 274.448H8.72286C7.94937 272.249 7.22798 270.022 6.55869 267.766H575.917Z" fill="#6C63FF"/>
</g>
<path d="M138.627 159.737H127.205V194.385H138.627V159.737Z" fill="#3F3D56"/>
<path d="M446.019 157.934H434.597V194.589H446.019V157.934Z" fill="#3F3D56"/>
<path d="M518.861 320.67V328.481L427.533 329.322L426.559 329.341L391.848 329.659L391.018 329.671L380.468 329.761H380.156L315.843 330.356L210.274 331.336H210.184L183.342 331.588L183.053 331.594L63.783 332.688V323.674L91.8271 306.849L148.096 306.38L149.298 306.374L149.695 306.368L150.897 306.35L177.913 306.128L179.122 306.122L179.506 306.116L180.709 306.11L189.371 306.038L189.6 306.032L210.971 305.851H211.145L377.907 304.445L381.989 304.415H382.398L385.512 304.385L408.146 304.199L409.348 304.181L410.46 304.169H411.037L418.077 304.115L419.471 304.097L421.341 304.085L427.202 304.031L436.502 303.953L437.705 303.941L439.797 303.929H440.187L485.1 303.544L518.861 320.67Z" fill="#65617D"/>
<path opacity="0.2" d="M518.861 320.67V328.481L427.533 329.322L426.559 329.341L391.848 329.659L391.018 329.671L380.468 329.761H380.156L315.843 330.356L210.274 331.336H210.184L183.342 331.588L183.053 331.594L63.783 332.688V323.674L91.8271 306.849L148.096 306.38L149.298 306.374L149.695 306.368L150.897 306.35L177.913 306.128L179.122 306.122L179.506 306.116L180.709 306.11L189.371 306.038L189.6 306.032L210.971 305.851H211.145L377.907 304.445L381.989 304.415H382.398L385.512 304.385L408.146 304.199L409.348 304.181L410.46 304.169H411.037L418.077 304.115L419.471 304.097L421.341 304.085L427.202 304.031L436.502 303.953L437.705 303.941L439.797 303.929H440.187L485.1 303.544L518.861 320.67Z" fill="black"/>
<path d="M178.004 290.631V305.347C178.004 306.044 177.806 306.726 177.434 307.316C177.061 307.905 176.529 308.377 175.899 308.676C175.43 308.903 174.918 309.026 174.397 309.036L153.416 309.481C152.856 309.494 152.3 309.377 151.793 309.138C151.152 308.845 150.609 308.373 150.228 307.78C149.848 307.186 149.646 306.496 149.647 305.791V290.631H178.004Z" fill="#3F3D56"/>
<path opacity="0.1" d="M178.004 290.631V305.347C178.004 306.044 177.806 306.726 177.434 307.316C177.061 307.905 176.529 308.377 175.899 308.676C175.43 308.903 174.918 309.026 174.397 309.036L153.416 309.481C152.856 309.494 152.3 309.377 151.793 309.138C151.152 308.845 150.609 308.373 150.228 307.78C149.848 307.186 149.646 306.496 149.647 305.791V290.631H178.004Z" fill="black"/>
<path d="M179.206 290.631V305.347C179.206 306.044 179.009 306.726 178.636 307.316C178.264 307.905 177.732 308.377 177.102 308.676C176.633 308.903 176.12 309.026 175.599 309.036L154.618 309.481C154.058 309.494 153.502 309.377 152.995 309.138C152.354 308.845 151.811 308.373 151.431 307.78C151.05 307.186 150.848 306.496 150.849 305.791V290.631H179.206Z" fill="#3F3D56"/>
<path d="M437.705 290.631H409.348V309.559H437.705V290.631Z" fill="#3F3D56"/>
<path opacity="0.1" d="M437.705 290.631H409.348V309.559H437.705V290.631Z" fill="black"/>
<path d="M436.502 290.631H408.146V309.559H436.502V290.631Z" fill="#3F3D56"/>
<path opacity="0.1" d="M138.627 159.731V163.174L127.205 162.88V159.731H138.627Z" fill="black"/>
<path d="M213.809 62.7339L200.084 161.281C199.997 161.911 199.681 162.486 199.196 162.897C198.712 163.309 198.093 163.527 197.457 163.511L87.565 160.662L85.4789 160.608C85.1157 160.6 84.7584 160.515 84.4303 160.359C84.1022 160.203 83.8106 159.979 83.5747 159.703C83.3387 159.427 83.1636 159.104 83.0608 158.756C82.958 158.408 82.9298 158.042 82.9781 157.682L98.3858 54.5196C98.4852 53.8806 98.8206 53.302 99.3259 52.8982C99.8312 52.4943 100.47 52.2946 101.115 52.3383L211.404 59.8015C211.76 59.8221 212.107 59.9162 212.425 60.0779C212.743 60.2396 213.023 60.4653 213.249 60.7408C213.475 61.0164 213.642 61.3357 213.738 61.6788C213.834 62.0218 213.858 62.3811 213.809 62.7339Z" fill="#65617D"/>
<path d="M105.762 59.5851L94.1417 150.519L195.137 153.722L207.557 65.9907L105.762 59.5851Z" fill="#FFF59C"/>
<path d="M351.041 58.179H234.41C232.641 58.179 231.206 59.6129 231.206 61.3817V159.13C231.206 160.899 232.641 162.333 234.41 162.333H351.041C352.811 162.333 354.246 160.899 354.246 159.13V61.3817C354.246 59.6129 352.811 58.179 351.041 58.179Z" fill="#65617D"/>
<path d="M348.829 65.1915H237.013V151.919H348.829V65.1915Z" fill="#FFF59C"/>
<path opacity="0.1" d="M446.019 157.928V160.206L434.597 160.44V157.928H446.019Z" fill="black"/>
<path d="M497.556 156.005C497.572 156.254 497.538 156.504 497.455 156.739C497.373 156.975 497.243 157.191 497.075 157.375C496.906 157.559 496.702 157.707 496.475 157.811C496.248 157.914 496.002 157.97 495.753 157.976L383.215 160.302C382.748 160.311 382.294 160.144 381.945 159.833C381.596 159.522 381.378 159.091 381.334 158.625L371.661 58.1069C371.637 57.8575 371.664 57.6059 371.741 57.3672C371.817 57.1286 371.941 56.9079 372.105 56.7186C372.269 56.5293 372.47 56.3752 372.695 56.2657C372.921 56.1563 373.166 56.0937 373.417 56.0819L485.1 50.5296L486.302 50.4695C486.78 50.4443 487.249 50.6057 487.611 50.9196C487.972 51.2335 488.197 51.6754 488.238 52.152L497.556 156.005Z" fill="#65617D"/>
<path d="M378.088 61.9887L480.087 56.9772L488.701 148.314L387.508 150.717L378.088 61.9887Z" fill="#FFF59C"/>
<path opacity="0.1" d="M497.556 156.005C497.572 156.254 497.538 156.504 497.456 156.739C497.373 156.975 497.243 157.191 497.075 157.375C496.906 157.559 496.702 157.707 496.475 157.811C496.248 157.914 496.002 157.97 495.753 157.976L485.1 50.5296L486.302 50.4695C486.78 50.4443 487.249 50.6057 487.611 50.9196C487.972 51.2335 488.197 51.6754 488.238 52.152L497.556 156.005Z" fill="black"/>
<path opacity="0.1" d="M101.133 52.3322L87.565 160.662L85.4789 160.608C85.1157 160.6 84.7584 160.515 84.4303 160.359C84.1022 160.203 83.8106 159.979 83.5747 159.703C83.3387 159.427 83.1636 159.104 83.0608 158.756C82.958 158.408 82.9298 158.042 82.9781 157.682L98.3859 54.5195C98.484 53.8761 98.8215 53.2933 99.3308 52.8878C99.8401 52.4823 100.484 52.2839 101.133 52.3322Z" fill="black"/>
<path opacity="0.1" d="M138.627 184.121H127.205V194.385H138.627V184.121Z" fill="black"/>
<path opacity="0.1" d="M179.206 290.625V293.611L150.849 294.368V290.625H179.206Z" fill="black"/>
<path d="M229.252 187.697V288.768C229.245 289.385 229.001 289.975 228.57 290.417C228.139 290.859 227.555 291.118 226.938 291.141L111.726 294.206H111.696C111.068 294.198 110.469 293.946 110.025 293.502C109.581 293.059 109.329 292.46 109.321 291.832V187.697C109.329 187.07 109.581 186.47 110.025 186.027C110.469 185.583 111.068 185.331 111.696 185.323H226.878C227.505 185.331 228.105 185.583 228.548 186.027C228.992 186.47 229.245 187.07 229.252 187.697Z" fill="#65617D"/>
<path opacity="0.1" d="M111.726 185.323V294.206H111.696C111.068 294.198 110.469 293.946 110.025 293.502C109.581 293.059 109.329 292.46 109.321 291.832V187.697C109.329 187.07 109.581 186.47 110.025 186.027C110.469 185.583 111.068 185.331 111.696 185.323H111.726Z" fill="black"/>
<path d="M116.986 191.777H223.692V280.86L116.986 283.264V191.777Z" fill="#FFFACB"/>
<path opacity="0.1" d="M446.019 184.121H434.597V194.589H446.019V184.121Z" fill="black"/>
<path opacity="0.1" d="M436.502 290.625V294.476L408.146 293.719V290.625H436.502Z" fill="black"/>
<path d="M473.925 187.697V291.832C473.917 292.465 473.66 293.068 473.21 293.513C472.76 293.957 472.152 294.206 471.52 294.206L356.283 291.141C355.667 291.118 355.082 290.859 354.651 290.417C354.221 289.975 353.976 289.385 353.969 288.768V187.697C353.977 187.07 354.229 186.47 354.673 186.027C355.117 185.583 355.716 185.331 356.344 185.323H471.526C472.157 185.325 472.763 185.574 473.212 186.019C473.661 186.463 473.917 187.065 473.925 187.697Z" fill="#65617D"/>
<path opacity="0.1" d="M473.925 187.697V291.832C473.917 292.465 473.66 293.068 473.21 293.513C472.76 293.957 472.152 294.206 471.52 294.206V185.323C472.152 185.323 472.76 185.572 473.21 186.016C473.66 186.461 473.917 187.064 473.925 187.697Z" fill="black"/>
<path d="M466.26 191.777H359.554V280.86L466.26 283.264V191.777Z" fill="#FFFACB"/>
<path d="M350.987 187.697V288.768C350.98 289.385 350.736 289.975 350.305 290.417C349.874 290.859 349.29 291.118 348.673 291.141L233.46 294.206C232.828 294.206 232.221 293.957 231.771 293.513C231.321 293.068 231.064 292.465 231.056 291.832V187.697C231.064 187.07 231.316 186.47 231.76 186.027C232.204 185.583 232.803 185.331 233.43 185.323H348.613C349.24 185.331 349.839 185.583 350.283 186.027C350.727 186.47 350.979 187.07 350.987 187.697Z" fill="#65617D"/>
<path d="M238.721 191.777H345.427V280.86L238.721 283.264V191.777Z" fill="#FFFACB"/>
<path opacity="0.1" d="M518.861 320.67V328.481L427.533 329.322L426.559 329.341L391.848 329.659L391.018 329.671L380.468 329.761H380.156L315.843 330.356L210.274 331.336H210.184L183.342 331.588L183.053 331.594L63.783 332.688V323.674L185.524 322.875H185.812L210.454 322.707H210.568L380.745 321.583H380.919L381.021 321.577H381.304L384.183 321.559H385.061L429.841 321.258L432.487 321.246L433.076 321.24L518.861 320.67Z" fill="black"/>
<path d="M292.921 194.385C309.963 194.385 323.779 180.575 323.779 163.541C323.779 146.506 309.963 132.696 292.921 132.696C275.879 132.696 262.064 146.506 262.064 163.541C262.064 180.575 275.879 194.385 292.921 194.385Z" fill="#FBBEBE"/>
<path d="M323.785 226.635C323.785 226.635 263.969 233.846 269.68 226.635C271.748 224.027 272.32 216.299 272.205 207.496C272.169 204.822 272.073 202.052 271.935 199.294C271.273 186.074 269.68 173.155 269.68 173.155C269.68 173.155 321.981 148.518 315.97 168.047C313.565 175.937 314.353 187.018 316.18 197.419C316.715 200.454 317.334 203.428 317.984 206.252C319.568 213.141 321.504 219.944 323.785 226.635Z" fill="#FBBEBE"/>
<path opacity="0.1" d="M323.785 226.635C323.785 226.635 263.969 233.846 269.68 226.635C271.748 224.027 272.32 216.299 272.205 207.496C281.325 203.602 292.927 206.505 292.927 206.505C305.143 204.071 312.976 204.546 317.984 206.252C319.568 213.141 321.504 219.944 323.785 226.635Z" fill="black"/>
<path d="M210.25 332.015V331.51L315.825 330.362L380.15 329.761H380.33L380.264 330.65L380.354 329.761H380.468V329.659L381.292 321.577L381.604 318.518L381.701 317.563L381.785 316.764L385.5 304.379L389.215 292.013L392.341 281.599L397.114 265.687C397.114 265.687 394.409 259.378 392.906 257.575C391.403 255.773 389.9 243.454 389.9 243.454C389.9 243.454 377.072 231.238 371.463 229.832C369.112 229.231 364.471 228.432 359.542 227.428C357.696 227.056 355.803 226.659 353.981 226.226C352.953 225.992 351.943 225.746 350.975 225.499C349.092 225.029 347.235 224.455 345.415 223.781C344.46 223.434 343.552 222.972 342.709 222.405C338.291 219.166 327.217 218.799 326.791 218.799C326.789 218.785 326.789 218.771 326.791 218.757V218.703C326.806 218.451 326.806 218.198 326.791 217.946C326.791 217.706 326.791 217.423 326.736 217.105C326.736 217.009 326.737 216.906 326.694 216.804C326.664 216.588 326.628 216.36 326.574 216.119C326.556 216.012 326.532 215.906 326.502 215.801C326.328 215.077 326.076 214.374 325.751 213.704C325.709 213.607 325.654 213.505 325.606 213.409C325.312 212.854 324.97 212.325 324.584 211.829C324.506 211.727 324.422 211.618 324.332 211.516C323.839 210.936 323.292 210.405 322.697 209.93C322.534 209.804 322.366 209.672 322.192 209.551C322.094 209.473 321.992 209.4 321.885 209.335L321.35 208.987L320.851 208.698C320.412 208.458 319.949 208.223 319.444 208.001C319.288 207.929 319.12 207.863 318.951 207.797C318.783 207.731 318.519 207.629 318.296 207.544H318.26L317.809 207.364C317.467 207.25 317.118 207.148 316.751 207.046L316.192 206.901L315.591 206.763L314.99 206.637C314.389 206.517 313.745 206.409 313.072 206.325L312.387 206.24L311.683 206.168L310.956 206.108L309.922 206.048L308.72 206.006C303.417 206.006 298.129 206.568 292.945 207.683C289.344 206.882 285.655 206.542 281.968 206.673H281.445L280.844 206.709H280.459L279.684 206.781C279.425 206.781 279.161 206.835 278.902 206.871C278.644 206.907 278.373 206.937 278.115 206.98L277.718 207.046C277.327 207.112 276.93 207.184 276.516 207.268C276.383 207.292 276.251 207.322 276.119 207.358C275.596 207.472 275.073 207.61 274.556 207.767C274.297 207.839 274.039 207.923 273.78 208.013C273.648 208.049 273.522 208.097 273.396 208.145L273.011 208.284L272.632 208.434L272.181 208.614C271.953 208.71 271.73 208.812 271.508 208.92C271.382 208.975 271.255 209.035 271.135 209.101C271.015 209.167 270.889 209.221 270.775 209.287C269.415 209.989 268.159 210.875 267.041 211.919L266.735 212.213L266.434 212.52C266.332 212.622 266.236 212.73 266.14 212.838C265.748 213.266 265.382 213.718 265.045 214.19C264.949 214.317 264.859 214.443 264.769 214.575C264.387 215.137 264.042 215.723 263.735 216.33C263.657 216.474 263.585 216.624 263.513 216.768C263.022 217.783 262.62 218.839 262.31 219.923C262.198 220.324 262.096 220.724 262.004 221.125C262.004 221.125 249.277 226.737 238.721 230.799C235.913 231.881 233.268 232.86 231.056 233.599C230.413 233.816 229.811 234.014 229.252 234.2C228.039 234.639 226.778 234.929 225.495 235.066C224.891 235.075 224.288 235.132 223.692 235.234C218.84 236.021 210.526 239.44 209.619 242.871C209.545 243.145 209.524 243.431 209.558 243.712C209.558 243.712 209.558 243.755 209.558 243.779C210.16 247.985 205.951 247.384 205.951 247.384C205.951 247.384 204.449 258.501 202.344 261.505C200.824 263.668 199.784 268.494 199.651 272.135C199.576 273.27 199.665 274.409 199.916 275.518C199.916 275.548 199.916 275.578 199.916 275.602C200.156 276.407 199.579 278.607 198.599 281.425C197.535 284.52 195.984 288.365 194.493 291.995C192.245 297.475 190.129 302.45 189.997 303.544C189.943 304.031 189.786 304.902 189.57 306.026C188.692 310.605 186.744 319.324 185.783 322.851C185.067 325.483 184.027 329.088 183.312 331.564C183.312 331.636 183.27 331.708 183.252 331.774L210.202 331.51V332.015H210.286H210.25Z" fill="#FFEE51"/>
<path opacity="0.1" d="M220.085 261.187C220.085 261.187 254.351 278.913 266.675 276.81L220.085 261.187Z" fill="black"/>
<path opacity="0.1" d="M289.819 253.976C289.819 253.976 323.184 264.792 334.305 266.294C345.427 267.796 289.819 253.976 289.819 253.976Z" fill="black"/>
<path opacity="0.1" d="M326.827 219.172C309.393 222.381 276.57 221.69 262.382 221.203C267.582 202.575 292.939 208.908 292.939 208.908C324.326 202.647 326.73 215.638 326.827 219.172Z" fill="black"/>
<path d="M326.827 217.97C309.393 221.179 276.57 220.488 262.382 220.001C267.582 201.373 292.939 207.707 292.939 207.707C324.326 201.445 326.73 214.437 326.827 217.97Z" fill="#FFEE51"/>
<path d="M419.369 300.095C419.369 300.095 439.905 296.94 440.308 305.954C440.71 314.967 429.835 321.264 429.835 321.264L419.369 300.095Z" fill="#FBBEBE"/>
<path opacity="0.1" d="M316.18 197.419C315.297 197.814 314.394 198.163 313.475 198.465C306.994 200.7 300.46 202.954 293.637 203.771C286.813 204.588 279.654 203.867 273.702 200.466C273.077 200.113 272.475 199.722 271.899 199.294C271.237 186.074 269.644 173.155 269.644 173.155C269.644 173.155 321.945 148.518 315.934 168.047C313.541 175.937 314.353 187.018 316.18 197.419Z" fill="black"/>
<path d="M284.457 115.331C283.599 115.557 282.7 115.58 281.831 115.397C280.963 115.215 280.149 114.832 279.455 114.279L280.706 116.016C279.969 116.101 279.222 116.024 278.518 115.79C277.814 115.557 277.17 115.172 276.63 114.664C276.516 116.218 276.581 117.781 276.822 119.321C274.753 119.42 272.716 118.781 271.075 117.518C271.043 118.06 271.178 118.599 271.462 119.062C271.746 119.525 272.164 119.89 272.662 120.108C270.584 119.86 268.486 120.376 266.76 121.56C265.035 122.744 263.799 124.515 263.284 126.543L266.422 126.832C263.956 127.358 261.742 128.708 260.146 130.659C259.184 131.861 258.451 133.4 258.872 134.866C259.292 136.332 261.324 137.269 262.43 136.224C260.857 138.101 259.713 140.299 259.08 142.665C258.446 145.031 258.338 147.506 258.763 149.918C259.049 150.946 259.142 152.017 259.04 153.079C258.841 154.07 258.216 154.93 257.904 155.897C257.303 157.652 257.874 159.557 258.409 161.305L261.228 170.571C262.25 173.918 263.266 177.271 264.601 180.51C265.546 182.558 266.349 184.668 267.005 186.825C267.763 189.734 267.793 192.919 269.41 195.46C270.518 197.06 272 198.365 273.726 199.264C279.672 202.665 286.856 203.386 293.661 202.569C300.466 201.752 306.994 199.498 313.469 197.263C314.907 196.83 316.288 196.225 317.581 195.46C322.059 192.528 323.057 186.531 323.893 181.249C324.825 175.36 326.069 169.484 328.275 163.943C329.586 160.644 331.281 157.297 330.993 153.764C330.626 149.071 326.911 145.267 325.991 140.652C325.683 139.11 325.697 137.52 326.033 135.983C326.318 135.068 326.478 134.118 326.508 133.159C326.406 131.224 324.819 129.734 323.328 128.49C320.094 125.79 316.755 123.238 313.313 120.835C313.138 119.633 314.773 119.116 315.513 118.167C316.559 116.827 315.477 114.7 313.89 114.075C312.303 113.45 310.523 113.858 308.87 114.273C308.978 113.427 308.809 112.569 308.39 111.827C307.971 111.084 307.323 110.497 306.543 110.152C305.763 109.807 304.892 109.723 304.06 109.912C303.229 110.101 302.48 110.554 301.927 111.202C301.488 110.196 300.786 109.326 299.896 108.683C299.005 108.041 297.959 107.649 296.865 107.549C292.879 107.236 292.801 110.283 290.252 111.96C287.703 113.636 285.599 111.425 283.639 109.814C283.279 110.725 283.165 111.714 283.309 112.682C283.452 113.65 283.848 114.564 284.457 115.331Z" fill="#3F3D56"/>
<path d="M434.597 318.122C434.597 318.122 434.062 319.396 433.076 321.24C431.584 324.079 429.769 326.734 427.665 329.154L427.503 329.328H426.529L391.818 329.647H390.988L390.886 329.527L384.153 321.541L381.616 318.53L381.514 318.404L381.298 318.152L381.177 318.008L381.021 317.821L376.086 311.969L377.889 304.457L380.961 291.802L381.039 291.496L381.64 289.092L382.067 287.29L383.498 281.413L388.403 261.193L397.12 265.699L406.312 281.924L411.248 290.637H413.953C414.464 290.637 415.636 291.622 416.814 292.758C417.235 293.16 417.656 293.587 418.017 293.96C419.087 295.065 419.934 296.015 419.934 296.015C419.934 296.015 424.317 296.111 425.495 299.56C425.556 299.727 425.606 299.898 425.645 300.071C426.036 301.427 426.545 302.745 427.166 304.013C427.942 305.701 428.916 307.618 429.902 309.535C431.735 313.05 433.599 316.397 434.284 317.611L434.368 317.761L434.597 318.122Z" fill="#FFEE51"/>
<path opacity="0.1" d="M382.957 290.991L382.897 291.851V291.911L382.795 293.293L381.995 304.415L381.027 317.815L380.751 321.589L380.15 329.665V329.767L315.826 330.368L210.268 331.51V332.015H210.184V331.51V331.342L210.454 322.713L210.971 305.851L211.416 291.556L211.458 290.132C211.484 289.272 211.686 288.427 212.05 287.648C212.414 286.869 212.933 286.172 213.575 285.6C214.218 285.028 214.97 284.593 215.787 284.322C216.603 284.05 217.466 283.948 218.323 284.021C221.161 284.261 224.846 284.556 229.252 284.868L231.056 285C256.503 286.767 303.532 289.05 350.987 286.202C351.985 286.148 352.989 286.088 353.993 286.016C361.351 285.553 368.704 284.958 375.984 284.213C376.904 284.117 377.834 284.223 378.709 284.525C379.584 284.827 380.381 285.317 381.046 285.96C381.711 286.603 382.227 287.385 382.557 288.249C382.887 289.113 383.024 290.039 382.957 290.961V290.991Z" fill="black"/>
<path d="M210.25 332.015V331.51L315.825 330.362L380.15 329.761H380.33V329.659L380.931 321.583L381.19 317.978L382.176 304.391L382.951 293.635V293.371C382.987 292.875 382.965 292.377 382.885 291.887C382.888 291.867 382.888 291.846 382.885 291.826C382.72 290.812 382.307 289.855 381.683 289.038C381.021 288.19 380.153 287.524 379.163 287.103C378.172 286.683 377.09 286.521 376.02 286.635C368.74 287.38 361.387 287.975 354.029 288.437C353.025 288.509 352.021 288.57 351.023 288.624C303.568 291.442 256.539 289.158 231.092 287.422L229.289 287.29C224.882 286.977 221.197 286.689 218.359 286.442C216.798 286.311 215.244 286.762 213.996 287.708C212.748 288.655 211.896 290.03 211.602 291.568C211.542 291.893 211.506 292.223 211.494 292.554L211.085 305.869L210.526 322.737L210.262 331.366V331.534V332.039L210.25 332.015Z" fill="#3F3D56"/>
<path opacity="0.1" d="M383.137 295.204L382.398 304.415L381.298 318.146L381.021 321.583L380.42 329.28L380.384 329.665V329.767L380.294 330.657L380.36 329.767H380.186L315.862 330.368L210.268 331.51V331.342L210.562 322.713L211.164 305.851L211.548 294.645C211.567 294.007 211.745 293.385 212.067 292.834C212.388 292.282 212.842 291.821 213.388 291.49C214.069 291.073 214.864 290.883 215.66 290.949C216.923 291.051 218.474 291.171 220.283 291.304C223.223 291.52 226.848 291.772 231.068 292.037C238.883 292.529 248.688 293.058 259.924 293.491C291.184 294.693 333.385 295.095 373.471 291.586C375.274 291.43 377.138 291.256 378.959 291.081C379.68 291.009 380.407 291.147 381.051 291.478C381.234 291.569 381.407 291.678 381.568 291.802C382.092 292.181 382.506 292.691 382.771 293.281C382.832 293.398 382.882 293.521 382.921 293.647C383.102 294.145 383.175 294.675 383.137 295.204Z" fill="black"/>
<path opacity="0.1" d="M179.206 303.43V305.347C179.206 306.044 179.009 306.727 178.636 307.316C178.264 307.905 177.732 308.377 177.102 308.676L152.995 309.138C152.354 308.845 151.811 308.373 151.431 307.78C151.05 307.186 150.848 306.496 150.849 305.791V303.989L179.206 303.43Z" fill="black"/>
<path d="M179.506 309.805L148.096 310.406V305.196L179.506 304.595V309.805Z" fill="#3F3D56"/>
<path opacity="0.1" d="M179.506 309.805L148.096 310.406V305.196L179.506 304.595V309.805Z" fill="black"/>
<path d="M180.709 309.805L149.298 310.406V305.196L180.709 304.595V309.805Z" fill="#3F3D56"/>
<g opacity="0.1">
<path opacity="0.1" d="M284.703 113.359C284.116 112.597 283.726 111.701 283.567 110.752C283.422 111.68 283.509 112.629 283.82 113.516C284.118 113.488 284.414 113.436 284.703 113.359Z" fill="black"/>
<path opacity="0.1" d="M277.069 117.349C276.955 116.613 276.881 115.871 276.846 115.126C276.846 115.865 276.846 116.61 276.846 117.355L277.069 117.349Z" fill="black"/>
<path opacity="0.1" d="M326.063 137.401C326.096 136.866 326.169 136.334 326.28 135.809C326.564 134.895 326.726 133.947 326.761 132.991C326.747 132.776 326.715 132.563 326.664 132.354C326.562 132.907 326.4 133.46 326.28 134.006C326.04 135.121 325.967 136.265 326.063 137.401Z" fill="black"/>
<path opacity="0.1" d="M313.559 118.834L314.214 119.308C314.767 118.909 315.284 118.463 315.759 117.974C315.986 117.662 316.126 117.295 316.166 116.911C316.206 116.527 316.145 116.14 315.988 115.787C315.928 115.924 315.851 116.053 315.759 116.172C315.02 117.121 313.385 117.644 313.559 118.834Z" fill="black"/>
<path opacity="0.1" d="M264.162 124.614C263.943 125.053 263.767 125.512 263.639 125.984C264.579 125.46 265.592 125.077 266.645 124.849L264.162 124.614Z" fill="black"/>
<path opacity="0.1" d="M272.452 118.077C272.057 117.859 271.679 117.612 271.322 117.337C271.306 117.575 271.325 117.814 271.376 118.046C271.735 118.029 272.094 118.039 272.452 118.077Z" fill="black"/>
<path opacity="0.1" d="M331.227 153.481C330.981 156.396 329.622 159.202 328.522 161.966C326.316 167.506 325.071 173.383 324.14 179.278C323.304 184.56 322.336 190.557 317.827 193.483C316.539 194.253 315.16 194.858 313.721 195.286C307.241 197.527 300.706 199.775 293.883 200.592C287.06 201.409 279.9 200.694 273.949 197.293C272.223 196.393 270.742 195.088 269.632 193.489C268.027 190.947 267.997 187.763 267.228 184.854C266.572 182.695 265.768 180.583 264.823 178.533C263.494 175.3 262.473 171.923 261.457 168.6C260.515 165.511 259.575 162.421 258.637 159.328C258.328 158.398 258.099 157.443 257.952 156.474C257.717 158.012 258.174 159.623 258.637 161.131C259.575 164.228 260.515 167.318 261.457 170.403C262.473 173.75 263.494 177.103 264.823 180.336C265.768 182.385 266.572 184.497 267.228 186.657C267.985 189.565 268.015 192.75 269.632 195.292C270.742 196.89 272.223 198.196 273.949 199.096C279.9 202.497 287.078 203.212 293.883 202.395C300.688 201.577 307.217 199.33 313.721 197.089C315.16 196.661 316.539 196.055 317.827 195.286C322.306 192.36 323.304 186.363 324.14 181.081C325.071 175.186 326.316 169.309 328.522 163.769C329.832 160.476 331.528 157.129 331.239 153.59C331.239 153.554 331.227 153.517 331.227 153.481Z" fill="black"/>
<path opacity="0.1" d="M259.274 151.156C259.274 151.156 259.274 151.114 259.274 151.09C259.383 150.03 259.289 148.96 258.998 147.935C258.878 147.276 258.8 146.609 258.763 145.94C258.694 147.211 258.773 148.485 258.998 149.738C259.094 150.207 259.202 150.681 259.274 151.156Z" fill="black"/>
<path opacity="0.1" d="M261.108 136.458C261.57 135.682 262.095 134.944 262.677 134.253C261.577 135.304 259.545 134.367 259.118 132.907C258.961 133.497 258.961 134.119 259.118 134.709C259.266 135.15 259.528 135.544 259.878 135.851C260.227 136.159 260.651 136.368 261.108 136.458Z" fill="black"/>
</g>
<path opacity="0.1" d="M411.254 290.631C411.254 290.631 413.159 297.541 411.254 303.55C409.348 309.559 411.254 290.631 411.254 290.631Z" fill="black"/>
<path opacity="0.1" d="M419.369 297.679C419.369 297.679 420.169 306.452 418.365 308.009C416.562 309.565 419.369 297.679 419.369 297.679Z" fill="black"/>
<path d="M119.625 206.024L180.709 205.423" stroke="#FFEE51" stroke-width="2" stroke-miterlimit="10"/>
<path d="M119.625 213.517L180.709 212.922" stroke="#FFEE51" stroke-width="2" stroke-miterlimit="10"/>
<path d="M119.625 221.017L180.709 220.416" stroke="#FFEE51" stroke-width="2" stroke-miterlimit="10"/>
</g>
<defs>
<clipPath id="clip0">
<rect width="626" height="333" fill="white"/>
</clipPath>
</defs>
</svg>
