<?xml version="1.0" encoding="utf-8"?>
<!-- Generator: Adobe Illustrator 24.1.0, SVG Export Plug-In . SVG Version: 6.00 Build 0)  -->
<svg version="1.1" id="Layer_1" xmlns="http://www.w3.org/2000/svg" xmlns:xlink="http://www.w3.org/1999/xlink" x="0px" y="0px"
	 viewBox="0 0 900 900" style="enable-background:new 0 0 900 900;" xml:space="preserve">
<style type="text/css">
	.st0{fill:#FFEE51;}
</style>
<g>
	<circle class="st0" cx="450" cy="450" r="432.25"/>
	<g>
		<path d="M296.51,534.5c-2.85,4.03-6.56,6.4-11.12,7.09c-4.57,0.7-8.67-0.23-12.3-2.79c-2.82-1.99-4.79-4.67-5.89-8.01
			c-1.11-3.35-1.3-7.04-0.58-11.05l12.64-57.67l-93.4-65.95l-50.03,31.72c-3.15,2.31-6.44,3.45-9.9,3.43
			c-3.46-0.03-6.6-1.03-9.42-3.03c-4.23-2.99-6.68-6.37-7.32-10.16c-0.66-3.78,0.37-7.59,3.08-11.42c0.57-0.8,1.91-2.28,4.02-4.41
			l208.99-132.38c3.68-2.23,7.39-3.31,11.12-3.24c3.72,0.07,7.06,1.44,10,4.12c3.02,2.13,5.17,4.86,6.45,8.18
			c1.28,3.32,1.35,6.84,0.23,10.58l-53.42,238.6C298.98,530.36,297.93,532.49,296.51,534.5z M216.76,376.72l70.43,49.73l24.4-109.61
			L216.76,376.72z"/>
		<path d="M285.69,579.19c-8.37-12.1-14.42-26.41-18.15-42.94c-1.67-6.62-0.87-12.24,2.4-16.88c2.56-3.63,6.28-5.91,11.17-6.84
			c4.88-0.93,9.24-0.04,13.07,2.66c3.42,2.42,5.56,5.59,6.42,9.52c2.79,13.15,7.22,24.51,13.3,34.08
			c6.07,9.57,14.55,18.2,25.43,25.89c12.7,8.96,25.49,13.62,38.38,13.97c12.89,0.35,22.47-3.91,28.73-12.78
			c7.19-10.62,8.54-21.83,4.03-33.62c-4.51-11.79-14.18-25.79-29.01-42c-17.77-18.89-28.83-37.12-33.18-54.69
			c-4.35-17.57-0.48-34.92,11.61-52.05c8.39-11.89,18.88-20.11,31.46-24.67c12.57-4.56,26.12-5.34,40.62-2.35
			c14.5,2.99,28.7,9.39,42.6,19.21c12.49,8.82,22.86,19.16,31.1,31.02c8.23,11.86,13.43,23.53,15.59,35.02
			c1.78,7.3,1.05,13.27-2.23,17.91c-2.56,3.63-6.2,5.89-10.91,6.79c-4.71,0.9-8.99,0-12.81-2.71c-2.83-1.99-4.57-4.43-5.24-7.33
			c-1.54-8.94-5.67-18.5-12.37-28.67c-6.71-10.17-14.3-18.25-22.76-24.22c-13.5-9.53-26.19-14.34-38.06-14.42
			c-11.88-0.08-21.01,4.42-27.41,13.48c-6.97,9.88-8.33,20.24-4.07,31.1c4.26,10.86,12.97,23.65,26.13,38.38
			c13.3,14.53,23.3,27.63,30,39.31c6.7,11.68,9.86,23.57,9.46,35.67c-0.39,12.11-5.28,24.81-14.68,38.11
			c-8.25,11.69-18.86,19.75-31.81,24.2c-12.95,4.44-26.85,5.2-41.69,2.27c-14.84-2.94-29.02-9.17-42.52-18.7
			C305.6,602.53,294.06,591.28,285.69,579.19z"/>
		<path d="M790.69,381.52c0.9,4.71-0.14,9.19-3.13,13.42L658.86,577.21c-3.19,4.09-7.19,6.55-12.01,7.38
			c-4.82,0.83-9.44-0.32-13.87-3.45c-4.03-2.85-6.52-6.71-7.44-11.6c-0.93-4.88,0.1-9.44,3.09-13.67l55.28-78.29L576.6,401.8
			l-55.28,78.29c-2.99,4.23-6.99,6.69-12,7.38c-5.02,0.69-9.54-0.39-13.57-3.24c-4.44-3.13-7.02-7.06-7.74-11.81
			c-0.73-4.74,0.4-9.23,3.39-13.46L620.1,276.69c2.84-4.03,6.67-6.46,11.49-7.29c4.81-0.83,9.44,0.32,13.87,3.45
			c4.03,2.84,6.51,6.71,7.44,11.6c0.93,4.89-0.03,9.34-2.87,13.37l-53.79,76.17l107.31,75.77l53.79-76.17
			c2.84-4.03,6.77-6.39,11.79-7.07c5.01-0.69,9.53,0.39,13.57,3.24C787.12,372.88,789.79,376.8,790.69,381.52z"/>
	</g>
</g>
</svg>
