<svg width="615" height="494" viewBox="0 0 615 494" fill="none" xmlns="http://www.w3.org/2000/svg">
<path d="M615 459.017H0V460.446H615V459.017Z" fill="#3F3D56"/>
<path d="M385.863 214.228C385.863 214.228 358.278 235.89 372.07 240.813C385.863 245.737 394.73 223.09 394.73 223.09L385.863 214.228Z" fill="#FFB8B8"/>
<path d="M386.848 206.351L380.937 216.197C380.937 216.197 390.789 216.197 392.759 230.967L400.641 221.12L386.848 206.351Z" fill="#CFCCE0"/>
<path d="M517.878 430.851L518.863 460.39L507.041 467.282L502.115 464.329L503.1 430.851H517.878Z" fill="#FFB8B8"/>
<path d="M447.93 422.973L449.9 454.482L422.315 466.298L424.285 449.559C424.285 449.559 432.167 436.758 430.196 422.973H447.93Z" fill="#FFB8B8"/>
<path d="M490.293 185.673C490.293 185.673 506.056 227.028 509.011 252.629C511.967 278.23 516.893 346.171 516.893 346.171L526.745 433.804L499.159 437.743L487.337 349.125L460.737 261.491L454.826 349.125L449.9 428.881L424.285 429.866L422.315 347.155L411.478 241.798L417.389 191.581L490.293 185.673Z" fill="#34321E"/>
<path d="M505.07 462.359C505.07 462.359 506.686 445.822 518.686 455.075L520.833 453.497L530.685 475.16C530.685 475.16 542.507 491.899 521.819 493.868C501.13 495.837 503.1 475.16 503.1 475.16L501.13 466.298L502.115 460.495L505.07 462.359Z" fill="#34321E"/>
<path d="M447.93 442.666C450.355 444.052 452.364 446.061 453.75 448.485C455.136 450.909 455.848 453.659 455.811 456.451C455.811 466.298 454.826 467.282 454.826 467.282L440.048 471.221C440.048 471.221 430.196 470.236 424.285 476.144C418.374 482.052 388.818 485.991 388.818 478.113C388.818 470.236 413.448 457.436 413.448 457.436C413.448 457.436 420.762 445.09 425.972 446.34C431.181 447.589 433.152 449.559 433.152 450.543C433.152 451.528 430.196 458.42 430.196 458.42C430.196 458.42 446.944 454.482 447.93 442.666Z" fill="#34321E"/>
<path d="M445.959 64.5612C459.562 64.5612 470.589 53.5402 470.589 39.945C470.589 26.3499 459.562 15.3289 445.959 15.3289C432.357 15.3289 421.33 26.3499 421.33 39.945C421.33 53.5402 432.357 64.5612 445.959 64.5612Z" fill="#FFB8B8"/>
<path d="M464.185 46.3452L475.022 70.9614L445.467 113.301C445.467 113.301 443.496 67.0228 437.585 59.1456C431.674 51.2685 464.185 46.3452 464.185 46.3452Z" fill="#FFB8B8"/>
<path d="M450.392 97.5472L455.319 84.7469L459.259 85.7312L464.185 81.7926L471.081 60.1306L480.933 67.0229L493.741 196.012L413.941 197.981L424.778 108.378L434.63 82.7776L441.741 73.3813L446.452 87.7006L450.392 97.5472Z" fill="#ECE7BF"/>
<path d="M473.052 152.687L476.067 63.6179C476.067 63.6179 481.919 64.0689 483.889 67.0228C485.859 69.9768 518.371 75.8847 518.371 75.8847L512.459 167.457C512.459 167.457 537.089 240.321 528.222 244.259C519.356 248.198 503.593 247.213 503.593 247.213L473.052 152.687Z" fill="#FFEE51"/>
<path d="M425.27 141.364L435.722 81.3347L412.463 97.0548L418.374 140.379L413.448 169.919C413.448 169.919 394.73 251.644 400.641 254.598C406.552 257.552 413.448 254.598 413.448 254.598L425.27 171.888V141.364Z" fill="#FFEE51"/>
<path d="M419.359 95.0854L412.463 97.0548L409.507 136.441L404.582 170.903L380.937 213.243C380.937 213.243 392.759 205.366 397.685 228.013L423.725 182.702L419.359 95.0854Z" fill="#FFEE51"/>
<path d="M496.204 206.351C496.204 206.351 468.619 228.013 482.411 232.936C496.204 237.859 505.07 215.212 505.07 215.212L496.204 206.351Z" fill="#FFB8B8"/>
<path d="M512.952 217.182L504.086 228.013L492.263 207.335L497.189 198.473L512.952 217.182Z" fill="#ECE7BF"/>
<path d="M510.982 79.3309L518.863 75.3923C518.863 75.3923 524.774 83.2695 525.759 90.162C526.745 97.0546 531.671 105.916 531.671 110.84C531.671 115.763 545.463 162.041 545.463 162.041L513.937 226.043C513.937 226.043 507.041 202.412 492.263 200.443L516.893 165.98L503.1 141.364L510.982 79.3309Z" fill="#FFEE51"/>
<path d="M466.578 16.4912L471.223 14.6328C471.223 14.6328 461.511 3.94716 448 4.87639L451.8 0.695012C451.8 0.695012 442.511 -3.02169 434.067 6.73471C429.628 11.8634 424.492 17.892 421.29 24.6831H416.316L418.392 29.2515L411.126 33.82L418.584 32.9994C418.139 35.5012 418.071 38.0552 418.381 40.5771C418.701 43.0997 419.989 45.3995 421.973 46.991C421.973 46.991 427.733 35.0748 427.733 33.2164V37.8623C427.733 37.8623 432.378 33.681 432.378 30.8935L434.911 34.1456L436.178 29.0351L451.8 34.1456L449.267 29.9643L458.978 31.3581L455.178 26.2475C455.178 26.2475 466.156 32.2872 466.578 37.3978C467 42.5082 470.214 47.3507 470.214 47.3507C470.214 47.3507 478.823 23.46 466.578 16.4912Z" fill="#2F2E41"/>
<path d="M466.156 39.4528C467.679 39.4528 468.914 37.9099 468.914 36.0066C468.914 34.1032 467.679 32.5603 466.156 32.5603C464.632 32.5603 463.397 34.1032 463.397 36.0066C463.397 37.9099 464.632 39.4528 466.156 39.4528Z" fill="#FFB8B8"/>
<path d="M114 202.941H28.9536V179.123H73.3462L114 202.941Z" fill="#FFEE51"/>
<path d="M28.72 199.672V269.259H304.886V199.672H28.72ZM136.43 257.584H46.7105V247.776H136.43V257.584ZM286.896 239.37H46.7105V229.562H286.896V239.37ZM286.896 221.155H46.7105V211.348H286.896V221.155Z" fill="black"/>
<path d="M114 90.387H28.9536V66.5681H73.3462L114 90.387Z" fill="#FFEE51"/>
<path d="M28.72 88.5186V158.106H304.886V88.5186H28.72ZM136.43 146.43H46.7105V136.623H136.43V146.43ZM188.298 128.216H46.7105V118.409H188.298L188.298 128.216ZM286.896 110.002H46.7106V100.194H286.896V110.002Z" fill="black"/>
<path d="M114 313.16H28.9536V289.342H73.3462L114 313.16Z" fill="#FFEE51"/>
<path d="M28.72 308.49V378.078H304.886V308.49H28.72ZM188.298 366.402H46.7105V356.594H188.298V366.402ZM188.298 348.188H46.7105V338.38H188.298V348.188ZM286.896 329.974H46.7105V320.166H286.896V329.974Z" fill="black"/>
<path d="M383.157 142.694H343.904V103.463H370.54V104.397H344.84V141.76H382.222V123.079H383.157V142.694Z" fill="#3F3D56"/>
<path d="M363.329 132.461C362.422 129.784 351.047 120.685 358.017 119.156L363.733 126.773L390.013 100.508L392.656 103.15L363.329 132.461Z" fill="#E0CA00"/>
<path d="M383.157 253.848H343.904V214.617H370.54V215.551H344.84V252.914H382.222V234.232H383.157V253.848Z" fill="#3F3D56"/>
<path d="M363.329 243.615C362.422 240.938 351.047 231.839 358.017 230.309L363.733 237.927L390.013 211.662L392.656 214.303L363.329 243.615Z" fill="#E0CA00"/>
<path d="M383.157 364.534H343.904V325.303H370.54V326.237H344.84V363.6H382.222V344.918H383.157V364.534Z" fill="#3F3D56"/>
<path d="M363.329 354.301C362.422 351.624 351.047 342.525 358.017 340.995L363.733 348.613L390.013 322.348L392.656 324.99L363.329 354.301Z" fill="#E0CA00"/>
</svg>
